<?xml version="1.0" encoding="utf-8"?>
<svg xmlns="http://www.w3.org/2000/svg" xmlns:svg="http://www.w3.org/2000/svg" version="1.1" viewBox="0 0 1400 440">
	<title>The titlepage for the Standard Ebooks edition of Creatures That Once Were Men, by Maxim Gorky</title>
	<g aria-label="CREATURES">
		<path d="m 441.32821,114.09357 c -17.68421,0 -25.45029,-12.35088 -25.45029,-22.736846 0,-10.292397 7.76608,-22.643275 25.45029,-22.643275 8.98246,0 15.1579,4.77193 15.1579,4.77193 l 7.48538,-14.97076 c 0,0 -8.60819,-7.111112 -25.35673,-7.111112 -21.89474,0 -41.82456,17.964913 -41.82456,40.140352 0,22.081871 20.02339,39.859651 41.82456,39.859651 16.74854,0 25.35673,-7.11111 25.35673,-7.11111 l -7.48538,-14.97076 c 0,0 -6.17544,4.77193 -15.1579,4.77193 z"/>
		<path d="M 475.79313,52.807016 V 130 h 17.59064 V 99.497075 L 516.96272,130 h 22.36257 l -26.5731,-31.906433 c 9.45029,-2.994152 15.81287,-10.760234 15.81287,-22.362574 0,-15.157895 -10.8538,-22.923977 -25.16959,-22.923977 z m 17.59064,34.245615 V 66.842104 h 2.05848 c 6.64328,0 14.59649,0.467836 14.59649,10.105263 0,9.637428 -7.95321,10.105264 -14.59649,10.105264 z"/>
		<path d="M 592.02558,52.807016 H 547.86184 V 130 h 44.16374 v -15.4386 h -26.5731 V 99.029239 h 25.45029 V 83.590642 H 565.45248 V 68.245613 h 26.5731 z"/>
		<path d="M 646.89109,52.807016 H 630.61038 L 599.45249,130 h 18.90058 l 5.70761,-15.4386 h 29.38011 L 659.1484,130 h 18.90058 z m 0.5614,46.31579 h -17.40351 l 8.60819,-22.45614 h 0.18713 z"/>
		<path d="m 676.53437,68.245613 h 18.33918 V 130 h 17.59064 V 68.245613 h 18.33918 V 52.807016 h -54.269 z"/>
		<path d="m 801.45981,52.807016 h -17.59064 v 44.63158 c 0,12.912284 -3.92983,16.654974 -12.53801,16.654974 -8.60819,0 -12.53801,-3.74269 -12.53801,-16.654974 V 52.807016 H 741.2025 v 49.777774 c 0,19.08772 10.47953,28.81872 30.12866,28.81872 19.64912,0 30.12865,-9.731 30.12865,-28.81872 z"/>
		<path d="M 816.76537,52.807016 V 130 h 17.59065 V 99.497075 L 857.93496,130 h 22.36258 l -26.5731,-31.906433 c 9.45029,-2.994152 15.81286,-10.760234 15.81286,-22.362574 0,-15.157895 -10.8538,-22.923977 -25.16959,-22.923977 z m 17.59065,34.245615 V 66.842104 h 2.05847 c 6.64328,0 14.5965,0.467836 14.5965,10.105263 0,9.637428 -7.95322,10.105264 -14.5965,10.105264 z"/>
		<path d="M 932.99784,52.807016 H 888.8341 V 130 h 44.16374 v -15.4386 h -26.5731 V 99.029239 h 25.45029 V 83.590642 H 906.42474 V 68.245613 h 26.5731 z"/>
		<path d="m 976.55485,51.403507 c -12.44445,0 -25.16959,9.169591 -25.16959,23.578948 0,8.046784 5.4269,15.251462 14.69006,19.836258 9.16959,4.584795 17.40351,7.111107 17.40351,12.725147 0,7.20468 -7.29825,7.57895 -11.13451,7.57895 -8.60819,0 -18.90058,-8.70176 -18.90058,-8.70176 l -8.79532,14.78363 c 0,0 10.94736,10.19883 29.00584,10.19883 15.06433,0 29.09944,-6.45614 29.09944,-24.88889 0,-10.105264 -9.45031,-17.40351 -18.0585,-21.052632 -8.79532,-3.742691 -16.09357,-6.83041 -16.09357,-11.134504 0,-4.210526 3.18129,-6.923976 9.16959,-6.923976 7.95322,0 15.62573,5.333333 15.62573,5.333333 l 7.11115,-14.035088 c 0,0 -9.91816,-7.298246 -23.95325,-7.298246 z"/>
	</g>
	<g aria-label="THAT ONCE WERE MEN">
		<path d="m 107.26169,168.24561 h 18.33918 V 230 h 17.59064 v -61.75439 h 18.33918 v -15.43859 h -54.269 z"/>
		<path d="m 190.45613,199.02924 h 24.88889 V 230 h 17.59064 v -77.19298 h -17.59064 v 30.78362 H 190.45613 V 152.80702 H 172.86549 V 230 h 17.59064 z"/>
		<path d="M 288.3421,152.80702 H 272.0614 L 240.9035,230 h 18.90059 l 5.7076,-15.4386 h 29.38012 L 300.59941,230 H 319.5 Z m 0.5614,46.31579 H 271.5 l 8.60818,-22.45614 h 0.18714 z"/>
		<path d="m 317.98538,168.24561 h 18.33918 V 230 h 17.59065 v -61.75439 h 18.33918 v -15.43859 h -54.26901 z"/>
		<path d="m 410.71198,191.35672 c 0,22.54971 16.09357,40.04679 38.92398,40.04679 22.17543,0 38.83041,-17.49708 38.83041,-40.04679 0,-22.5497 -17.40351,-39.95321 -38.83041,-39.95321 -21.23977,0 -38.92398,17.40351 -38.92398,39.95321 z m 18.99415,0 c 0,-11.50877 6.36257,-23.01754 19.92983,-23.01754 13.66081,0 19.83625,11.50877 19.83625,23.01754 0,11.50878 -5.80117,23.01755 -19.83625,23.01755 -14.40936,0 -19.92983,-11.50877 -19.92983,-23.01755 z"/>
		<path d="m 518.81872,182.09357 h 0.18713 L 549.69591,230 h 17.59065 v -77.19298 h -17.59065 v 47.90643 h -0.18713 L 518.81872,152.80702 H 501.22807 V 230 h 17.59065 z"/>
		<path d="m 621.68276,214.09357 c -17.68421,0 -25.45029,-12.35088 -25.45029,-22.73685 0,-10.29239 7.76608,-22.64327 25.45029,-22.64327 8.98246,0 15.1579,4.77193 15.1579,4.77193 l 7.48538,-14.97076 c 0,0 -8.60819,-7.11111 -25.35673,-7.11111 -21.89474,0 -41.82456,17.96491 -41.82456,40.14035 0,22.08187 20.02339,39.85965 41.82456,39.85965 16.74854,0 25.35673,-7.11111 25.35673,-7.11111 l -7.48538,-14.97076 c 0,0 -6.17544,4.77193 -15.1579,4.77193 z"/>
		<path d="M 700.31143,152.80702 H 656.14769 V 230 h 44.16374 v -15.4386 h -26.5731 v -15.53216 h 25.4503 v -15.4386 h -25.4503 v -15.34503 h 26.5731 z"/>
		<path d="m 797.19589,230 h 19.46199 l 21.9883,-77.19298 H 819.1842 l -13.19299,52.95906 h -0.46783 l -14.03509,-52.95906 h -13.28655 l -14.03509,52.95906 h -0.46783 L 750.50583,152.80702 H 730.95028 L 752.93858,230 h 19.55556 l 12.35087,-43.32164 z"/>
		<path d="M 892.02927,152.80702 H 847.86553 V 230 h 44.16374 v -15.4386 h -26.5731 v -15.53216 h 25.45029 v -15.4386 h -25.45029 v -15.34503 h 26.5731 z"/>
		<path d="M 907.14183,152.80702 V 230 h 17.59065 V 199.49708 L 948.31142,230 H 970.674 l -26.5731,-31.90643 c 9.45029,-2.99416 15.81286,-10.76024 15.81286,-22.36258 0,-15.15789 -10.8538,-22.92397 -25.16959,-22.92397 z m 17.59065,34.24561 V 166.8421 h 2.05847 c 6.64328,0 14.5965,0.46784 14.5965,10.10527 0,9.63742 -7.95322,10.10526 -14.5965,10.10526 z"/>
		<path d="M 1023.3743,152.80702 H 979.21056 V 230 h 44.16374 v -15.4386 h -26.5731 v -15.53216 h 25.4503 v -15.4386 h -25.4503 v -15.34503 h 26.5731 z"/>
		<path d="m 1132.8845,230 h 17.5907 l -6.924,-77.19298 h -18.7135 l -17.1228,44.53801 -17.1228,-44.53801 h -18.7134 L 1064.9547,230 h 17.5906 l 3.6491,-45.75439 h 0.4679 l 15.8129,45.28655 h 10.4795 l 15.8128,-45.28655 h 0.4679 z"/>
		<path d="M 1206.6857,152.80702 H 1162.522 V 230 h 44.1637 v -15.4386 h -26.5731 v -15.53216 h 25.4503 v -15.4386 h -25.4503 v -15.34503 h 26.5731 z"/>
		<path d="m 1239.3888,182.09357 h 0.1872 L 1270.266,230 h 17.5907 v -77.19298 h -17.5907 v 47.90643 h -0.1871 l -30.6901,-47.90643 h -17.5906 V 230 h 17.5906 z"/>
	</g>
	<g aria-label="MAKSIM GORKY">
		<path d="m 424.54277,390 h 13.19298 l -5.19298,-57.89474 h -14.03509 l -12.84211,33.40351 -12.8421,-33.40351 H 378.78838 L 373.5954,390 h 13.19298 l 2.73684,-34.31579 h 0.35088 l 11.85965,33.96491 h 7.85965 l 11.85965,-33.96491 h 0.35087 z"/>
		<path d="M 477.42434,332.10526 H 465.21381 L 441.84539,390 h 14.17544 l 4.2807,-11.57895 h 22.03509 L 486.61732,390 h 14.17544 z m 0.42105,34.73685 H 464.79276 L 471.2489,350 h 0.14035 z"/>
		<path d="m 560.68422,390 -26.94737,-30.45614 23.29824,-27.4386 H 541.0351 l -19.85965,23.64913 V 332.10526 H 507.98246 V 390 h 13.19299 V 365.4386 L 542.50878,390 Z"/>
		<path d="m 588.18092,331.05263 c -9.33333,0 -18.87719,6.8772 -18.87719,17.68421 0,6.03509 4.07018,11.4386 11.01755,14.8772 6.87719,3.43859 13.05263,5.33333 13.05263,9.54385 0,5.40351 -5.47369,5.68422 -8.35088,5.68422 -6.45614,0 -14.17544,-6.52632 -14.17544,-6.52632 l -6.59649,11.08772 c 0,0 8.21053,7.64912 21.75439,7.64912 11.29824,0 21.82456,-4.8421 21.82456,-18.66666 0,-7.57895 -7.08772,-13.05264 -13.54386,-15.78948 -6.59649,-2.80702 -12.07018,-5.12281 -12.07018,-8.35088 0,-3.15789 2.38597,-5.19298 6.8772,-5.19298 5.96491,0 11.71929,4 11.71929,4 l 5.33334,-10.52631 c 0,0 -7.4386,-5.47369 -17.96492,-5.47369 z"/>
		<path d="M 632.1897,332.10526 H 618.99672 V 390 h 13.19298 z"/>
		<path d="m 693.51206,390 h 13.19299 l -5.19299,-57.89474 h -14.03508 l -12.84211,33.40351 -12.8421,-33.40351 H 647.75768 L 642.5647,390 h 13.19298 l 2.73684,-34.31579 h 0.35088 l 11.85965,33.96491 h 7.85965 l 11.85965,-33.96491 h 0.35087 z"/>
		<path d="m 793.5296,357.57895 h -26.73684 v 10.17544 h 13.33333 c 0,7.08772 -6.24561,11.15789 -12.5614,11.15789 -8.14035,0 -14.73684,-8 -14.73684,-17.82456 0,-10.03509 6.59649,-18.10526 14.73684,-18.10526 5.1228,0 9.54386,2.03508 12.91228,7.43859 l 8.63158,-9.47368 c -5.05264,-6.10526 -12.14035,-9.89474 -22.31579,-9.89474 -16.2807,0 -28.21053,13.40351 -28.21053,30.03509 0,16.5614 12.63158,29.96491 28.21053,29.96491 11.36842,0 23.57894,-6.24561 26.73684,-20.91228 z"/>
		<path d="m 801.69628,361.01754 c 0,16.91228 12.07017,30.03509 29.19298,30.03509 16.63158,0 29.1228,-13.12281 29.1228,-30.03509 0,-16.91228 -13.05263,-29.96491 -29.1228,-29.96491 -15.92983,0 -29.19298,13.05263 -29.19298,29.96491 z m 14.24561,0 c 0,-8.63157 4.77193,-17.26315 14.94737,-17.26315 10.24561,0 14.87719,8.63158 14.87719,17.26315 0,8.63158 -4.35088,17.26316 -14.87719,17.26316 -10.80702,0 -14.94737,-8.63158 -14.94737,-17.26316 z"/>
		<path d="M 870.83332,332.10526 V 390 h 13.19299 V 367.12281 L 901.71052,390 h 16.77193 l -19.92983,-23.92982 c 7.08772,-2.24562 11.85965,-8.07018 11.85965,-16.77193 0,-11.36842 -8.14035,-17.19299 -18.87719,-17.19299 z m 13.19299,25.68421 v -15.15789 h 1.54386 c 4.98245,0 10.94736,0.35088 10.94736,7.57895 0,7.22807 -5.96491,7.57894 -10.94736,7.57894 z"/>
		<path d="m 978.83659,390 -26.94737,-30.45614 23.29825,-27.4386 h -16 l -19.85965,23.64913 V 332.10526 H 926.13484 V 390 h 13.19298 V 365.4386 L 960.66115,390 Z"/>
		<path d="m 973.75002,332.10526 21.33333,31.92983 V 390 h 13.19295 v -25.96491 l 21.3334,-31.92983 H 1013.75 l -12.0702,18.52632 -12.07013,-18.52632 z"/>
	</g>
</svg>
